<svg xmlns="http://www.w3.org/2000/svg" xmlns:xlink="http://www.w3.org/1999/xlink" width="500" zoomAndPan="magnify" viewBox="0 0 375 374.999991" height="500" preserveAspectRatio="xMidYMid meet" version="1.0"><defs><g/></defs><rect x="-37.5" width="450" fill="#ffffff" y="-37.499999" height="449.999989" fill-opacity="1"/><rect x="-37.5" width="450" fill="#ffffff" y="-37.499999" height="449.999989" fill-opacity="1"/><rect x="-37.5" width="450" fill="#000000" y="-37.499999" height="449.999989" fill-opacity="1"/><g fill="#ffffff" fill-opacity="1"><g transform="translate(47.897015, 145.49999)"><g><path d="M 153.6875 0 L 121.65625 0 L 121.65625 -48.6875 L 93.015625 0 L 69.125 0 L 40.546875 -48.6875 L 40.546875 0 L 8.515625 0 L 8.515625 -76.359375 L 46.5625 -76.359375 L 81.09375 -21.8125 L 115.578125 -76.359375 L 153.6875 -76.359375 Z M 153.6875 0 "/></g></g></g><g fill="#ffffff" fill-opacity="1"><g transform="translate(210.078962, 145.49999)"><g><path d="M 40.546875 0 L 8.515625 0 L 8.515625 -76.359375 L 60.609375 -76.359375 C 73.066406 -76.359375 83.113281 -75.425781 90.75 -73.5625 C 98.394531 -71.707031 103.972656 -68.78125 107.484375 -64.78125 C 111.003906 -60.789062 112.765625 -55.585938 112.765625 -49.171875 C 112.765625 -42.785156 111.003906 -37.597656 107.484375 -33.609375 C 103.972656 -29.617188 98.394531 -26.691406 90.75 -24.828125 C 83.113281 -22.960938 73.066406 -22.03125 60.609375 -22.03125 L 40.546875 -22.03125 Z M 40.546875 -40.875 L 58.859375 -40.921875 C 63.960938 -40.921875 67.988281 -41.125 70.9375 -41.53125 C 73.882812 -41.9375 76.054688 -42.507812 77.453125 -43.25 C 78.859375 -44 79.753906 -44.878906 80.140625 -45.890625 C 80.535156 -46.910156 80.734375 -48.003906 80.734375 -49.171875 C 80.734375 -50.378906 80.535156 -51.488281 80.140625 -52.5 C 79.753906 -53.507812 78.859375 -54.382812 77.453125 -55.125 C 76.054688 -55.875 73.882812 -56.453125 70.9375 -56.859375 C 67.988281 -57.265625 63.960938 -57.46875 58.859375 -57.46875 L 40.546875 -57.46875 Z M 40.546875 -40.875 "/></g></g></g><g fill="#ffffff" fill-opacity="1"><g transform="translate(126.389197, 297.74998)"><g><path d="M 63.265625 0 L 8.515625 0 L 8.515625 -76.3125 L 64.4375 -76.3125 C 74.375 -76.3125 82.550781 -75.859375 88.96875 -74.953125 C 95.394531 -74.046875 100.34375 -72.625 103.8125 -70.6875 C 107.289062 -68.757812 109.648438 -66.304688 110.890625 -63.328125 C 112.140625 -60.347656 112.765625 -56.78125 112.765625 -52.625 C 112.660156 -49.363281 111.765625 -46.660156 110.078125 -44.515625 C 108.390625 -42.367188 106.421875 -40.769531 104.171875 -39.71875 C 101.921875 -38.675781 99.941406 -38.15625 98.234375 -38.15625 C 99.898438 -38.15625 101.847656 -37.828125 104.078125 -37.171875 C 106.316406 -36.515625 108.492188 -35.566406 110.609375 -34.328125 C 112.722656 -33.085938 114.476562 -31.578125 115.875 -29.796875 C 117.28125 -28.023438 117.984375 -26.003906 117.984375 -23.734375 C 117.984375 -20.753906 117.632812 -18.019531 116.9375 -15.53125 C 116.25 -13.050781 114.863281 -10.851562 112.78125 -8.9375 C 110.707031 -7.019531 107.648438 -5.394531 103.609375 -4.0625 C 99.566406 -2.738281 94.269531 -1.726562 87.71875 -1.03125 C 81.175781 -0.34375 73.023438 0 63.265625 0 Z M 61.46875 -44.703125 C 66.144531 -44.703125 69.769531 -44.929688 72.34375 -45.390625 C 74.914062 -45.847656 76.695312 -46.546875 77.6875 -47.484375 C 78.6875 -48.429688 79.1875 -49.632812 79.1875 -51.09375 C 79.1875 -52.582031 78.6875 -53.796875 77.6875 -54.734375 C 76.695312 -55.671875 74.914062 -56.359375 72.34375 -56.796875 C 69.769531 -57.242188 66.144531 -57.46875 61.46875 -57.46875 L 40.546875 -57.46875 L 40.546875 -44.703125 Z M 61.46875 -18.84375 C 66.25 -18.84375 70.128906 -18.960938 73.109375 -19.203125 C 76.097656 -19.453125 78.28125 -20.019531 79.65625 -20.90625 C 81.039062 -21.800781 81.734375 -23.238281 81.734375 -25.21875 C 81.734375 -27.207031 81.039062 -28.65625 79.65625 -29.5625 C 78.28125 -30.46875 76.097656 -31.035156 73.109375 -31.265625 C 70.128906 -31.492188 66.25 -31.609375 61.46875 -31.609375 L 40.546875 -31.609375 L 40.546875 -18.84375 Z M 61.46875 -18.84375 "/></g></g></g></svg>